<?xml version="1.0" standalone="no"?>
<!DOCTYPE svg PUBLIC "-//W3C//DTD SVG 20010904//EN"
 "http://www.w3.org/TR/2001/REC-SVG-20010904/DTD/svg10.dtd">
<svg version="1.0" xmlns="http://www.w3.org/2000/svg"
 width="960.000000pt" height="960.000000pt" viewBox="0 0 960.000000 960.000000"
 preserveAspectRatio="xMidYMid meet">
<metadata>
Created by potrace 1.14, written by Peter Selinger 2001-2017
</metadata>
<g transform="translate(0.000000,960.000000) scale(0.100000,-0.100000)"
fill="#000000" stroke="none">
<path d="M4199 8112 c-174 -290 -691 -1150 -1149 -1912 -458 -762 -1039 -1727
-1290 -2145 -251 -418 -611 -1016 -800 -1330 -188 -313 -345 -576 -347 -583
-4 -10 80 -12 412 -10 l418 3 224 390 c200 346 447 786 1211 2155 118 212 290
520 382 685 194 346 1207 2163 1567 2808 134 241 247 445 250 453 4 12 -37 14
-278 14 l-284 -1 -316 -527z"/>
<path d="M5342 8438 c-11 -18 -85 -150 -165 -293 -450 -808 -621 -1114 -1082
-1940 -279 -500 -592 -1061 -695 -1245 -186 -333 -519 -930 -854 -1530 l-175
-315 326 -3 c180 -1 330 1 334 5 4 5 85 143 179 308 95 165 366 638 603 1050
237 413 646 1126 910 1585 613 1069 627 1094 635 1102 4 4 758 -1345 1676
-2997 918 -1653 1672 -3005 1675 -3005 3 0 93 181 198 402 l193 402 -302 525
c-593 1034 -1224 2133 -1843 3211 -1350 2352 -1587 2765 -1590 2768 -1 2 -12
-12 -23 -30z"/>
<path d="M5173 6201 c-101 -175 -183 -323 -183 -328 0 -5 82 -153 183 -329
101 -175 466 -812 812 -1414 346 -602 783 -1365 973 -1694 189 -330 346 -606
349 -613 4 -11 -598 -13 -3361 -13 -1851 0 -3366 -3 -3366 -7 1 -5 90 -195
199 -423 l199 -415 3732 -3 c3552 -2 3732 -1 3725 15 -8 22 -3064 5525 -3073
5535 -4 4 -89 -136 -189 -311z"/>
<path d="M4350 4768 c-244 -425 -557 -971 -696 -1213 l-253 -440 700 -3 c384
-1 1014 -1 1399 0 l699 3 -253 440 c-139 242 -452 788 -696 1213 -244 424
-446 772 -450 772 -4 0 -206 -348 -450 -772z"/>
<path d="M2183 2778 c-6 -7 -66 -110 -133 -228 -68 -118 -147 -257 -176 -308
-30 -51 -54 -97 -54 -102 0 -7 890 -10 2470 -10 1359 0 2470 2 2470 4 0 7
-357 625 -370 640 -11 14 -226 16 -2105 16 -1662 0 -2095 -3 -2102 -12z"/>
</g>
</svg>
